<svg xmlns="http://www.w3.org/2000/svg" width="480" height="360" viewBox="0 0 480 360"><defs><linearGradient id="sky" x1="0" y1="0" x2="0" y2="1"><stop offset="0" stop-color="#0d1f40"/><stop offset="1" stop-color="#2b4c86"/></linearGradient></defs><rect width="480" height="360" fill="url(#sky)"/><circle cx="0" cy="0" r="1.0" fill="#fff" opacity=".8"/><circle cx="97" cy="53" r="1.6" fill="#fff" opacity=".8"/><circle cx="194" cy="106" r="2.2" fill="#fff" opacity=".8"/><circle cx="291" cy="159" r="1.0" fill="#fff" opacity=".8"/><circle cx="388" cy="12" r="1.6" fill="#fff" opacity=".8"/><circle cx="5" cy="65" r="2.2" fill="#fff" opacity=".8"/><circle cx="102" cy="118" r="1.0" fill="#fff" opacity=".8"/><circle cx="199" cy="171" r="1.6" fill="#fff" opacity=".8"/><circle cx="296" cy="24" r="2.2" fill="#fff" opacity=".8"/><circle cx="393" cy="77" r="1.0" fill="#fff" opacity=".8"/><circle cx="10" cy="130" r="1.6" fill="#fff" opacity=".8"/><circle cx="107" cy="183" r="2.2" fill="#fff" opacity=".8"/><circle cx="204" cy="36" r="1.0" fill="#fff" opacity=".8"/><circle cx="301" cy="89" r="1.6" fill="#fff" opacity=".8"/><circle cx="398" cy="142" r="2.2" fill="#fff" opacity=".8"/><circle cx="15" cy="195" r="1.0" fill="#fff" opacity=".8"/><circle cx="112" cy="48" r="1.6" fill="#fff" opacity=".8"/><circle cx="209" cy="101" r="2.2" fill="#fff" opacity=".8"/><circle cx="306" cy="154" r="1.0" fill="#fff" opacity=".8"/><circle cx="403" cy="7" r="1.6" fill="#fff" opacity=".8"/><circle cx="20" cy="60" r="2.2" fill="#fff" opacity=".8"/><circle cx="117" cy="113" r="1.0" fill="#fff" opacity=".8"/><circle cx="214" cy="166" r="1.6" fill="#fff" opacity=".8"/><circle cx="311" cy="19" r="2.2" fill="#fff" opacity=".8"/><circle cx="408" cy="72" r="1.0" fill="#fff" opacity=".8"/><circle cx="25" cy="125" r="1.6" fill="#fff" opacity=".8"/><circle cx="122" cy="178" r="2.2" fill="#fff" opacity=".8"/><circle cx="219" cy="31" r="1.0" fill="#fff" opacity=".8"/><circle cx="316" cy="84" r="1.6" fill="#fff" opacity=".8"/><circle cx="413" cy="137" r="2.2" fill="#fff" opacity=".8"/><circle cx="30" cy="190" r="1.0" fill="#fff" opacity=".8"/><circle cx="127" cy="43" r="1.6" fill="#fff" opacity=".8"/><circle cx="224" cy="96" r="2.2" fill="#fff" opacity=".8"/><circle cx="321" cy="149" r="1.0" fill="#fff" opacity=".8"/><circle cx="418" cy="2" r="1.6" fill="#fff" opacity=".8"/><circle cx="35" cy="55" r="2.2" fill="#fff" opacity=".8"/><circle cx="132" cy="108" r="1.0" fill="#fff" opacity=".8"/><circle cx="229" cy="161" r="1.6" fill="#fff" opacity=".8"/><circle cx="326" cy="14" r="2.2" fill="#fff" opacity=".8"/><circle cx="423" cy="67" r="1.0" fill="#fff" opacity=".8"/></svg>