<svg xmlns="http://www.w3.org/2000/svg" width="480" height="360" viewBox="0 0 480 360"><defs><linearGradient id="s" x1="0" y1="0" x2="0" y2="1"><stop offset="0" stop-color="#f3b779"/><stop offset="1" stop-color="#b87a5e"/></linearGradient></defs><rect width="480" height="360" fill="url(#s)"/><path d="M0 0 H480" stroke="#d8a07a" stroke-width="2" opacity=".5"/><path d="M0 0 v36" stroke="#d8a07a" stroke-width="2" opacity=".5"/><path d="M60 0 v36" stroke="#d8a07a" stroke-width="2" opacity=".5"/><path d="M120 0 v36" stroke="#d8a07a" stroke-width="2" opacity=".5"/><path d="M180 0 v36" stroke="#d8a07a" stroke-width="2" opacity=".5"/><path d="M240 0 v36" stroke="#d8a07a" stroke-width="2" opacity=".5"/><path d="M300 0 v36" stroke="#d8a07a" stroke-width="2" opacity=".5"/><path d="M360 0 v36" stroke="#d8a07a" stroke-width="2" opacity=".5"/><path d="M420 0 v36" stroke="#d8a07a" stroke-width="2" opacity=".5"/><path d="M0 36 H480" stroke="#d8a07a" stroke-width="2" opacity=".5"/><path d="M30 36 v36" stroke="#d8a07a" stroke-width="2" opacity=".5"/><path d="M90 36 v36" stroke="#d8a07a" stroke-width="2" opacity=".5"/><path d="M150 36 v36" stroke="#d8a07a" stroke-width="2" opacity=".5"/><path d="M210 36 v36" stroke="#d8a07a" stroke-width="2" opacity=".5"/><path d="M270 36 v36" stroke="#d8a07a" stroke-width="2" opacity=".5"/><path d="M330 36 v36" stroke="#d8a07a" stroke-width="2" opacity=".5"/><path d="M390 36 v36" stroke="#d8a07a" stroke-width="2" opacity=".5"/><path d="M450 36 v36" stroke="#d8a07a" stroke-width="2" opacity=".5"/><path d="M0 72 H480" stroke="#d8a07a" stroke-width="2" opacity=".5"/><path d="M0 72 v36" stroke="#d8a07a" stroke-width="2" opacity=".5"/><path d="M60 72 v36" stroke="#d8a07a" stroke-width="2" opacity=".5"/><path d="M120 72 v36" stroke="#d8a07a" stroke-width="2" opacity=".5"/><path d="M180 72 v36" stroke="#d8a07a" stroke-width="2" opacity=".5"/><path d="M240 72 v36" stroke="#d8a07a" stroke-width="2" opacity=".5"/><path d="M300 72 v36" stroke="#d8a07a" stroke-width="2" opacity=".5"/><path d="M360 72 v36" stroke="#d8a07a" stroke-width="2" opacity=".5"/><path d="M420 72 v36" stroke="#d8a07a" stroke-width="2" opacity=".5"/><path d="M0 108 H480" stroke="#d8a07a" stroke-width="2" opacity=".5"/><path d="M30 108 v36" stroke="#d8a07a" stroke-width="2" opacity=".5"/><path d="M90 108 v36" stroke="#d8a07a" stroke-width="2" opacity=".5"/><path d="M150 108 v36" stroke="#d8a07a" stroke-width="2" opacity=".5"/><path d="M210 108 v36" stroke="#d8a07a" stroke-width="2" opacity=".5"/><path d="M270 108 v36" stroke="#d8a07a" stroke-width="2" opacity=".5"/><path d="M330 108 v36" stroke="#d8a07a" stroke-width="2" opacity=".5"/><path d="M390 108 v36" stroke="#d8a07a" stroke-width="2" opacity=".5"/><path d="M450 108 v36" stroke="#d8a07a" stroke-width="2" opacity=".5"/><path d="M0 144 H480" stroke="#d8a07a" stroke-width="2" opacity=".5"/><path d="M0 144 v36" stroke="#d8a07a" stroke-width="2" opacity=".5"/><path d="M60 144 v36" stroke="#d8a07a" stroke-width="2" opacity=".5"/><path d="M120 144 v36" stroke="#d8a07a" stroke-width="2" opacity=".5"/><path d="M180 144 v36" stroke="#d8a07a" stroke-width="2" opacity=".5"/><path d="M240 144 v36" stroke="#d8a07a" stroke-width="2" opacity=".5"/><path d="M300 144 v36" stroke="#d8a07a" stroke-width="2" opacity=".5"/><path d="M360 144 v36" stroke="#d8a07a" stroke-width="2" opacity=".5"/><path d="M420 144 v36" stroke="#d8a07a" stroke-width="2" opacity=".5"/><path d="M0 180 H480" stroke="#d8a07a" stroke-width="2" opacity=".5"/><path d="M30 180 v36" stroke="#d8a07a" stroke-width="2" opacity=".5"/><path d="M90 180 v36" stroke="#d8a07a" stroke-width="2" opacity=".5"/><path d="M150 180 v36" stroke="#d8a07a" stroke-width="2" opacity=".5"/><path d="M210 180 v36" stroke="#d8a07a" stroke-width="2" opacity=".5"/><path d="M270 180 v36" stroke="#d8a07a" stroke-width="2" opacity=".5"/><path d="M330 180 v36" stroke="#d8a07a" stroke-width="2" opacity=".5"/><path d="M390 180 v36" stroke="#d8a07a" stroke-width="2" opacity=".5"/><path d="M450 180 v36" stroke="#d8a07a" stroke-width="2" opacity=".5"/><path d="M0 216 H480" stroke="#d8a07a" stroke-width="2" opacity=".5"/><path d="M0 216 v36" stroke="#d8a07a" stroke-width="2" opacity=".5"/><path d="M60 216 v36" stroke="#d8a07a" stroke-width="2" opacity=".5"/><path d="M120 216 v36" stroke="#d8a07a" stroke-width="2" opacity=".5"/><path d="M180 216 v36" stroke="#d8a07a" stroke-width="2" opacity=".5"/><path d="M240 216 v36" stroke="#d8a07a" stroke-width="2" opacity=".5"/><path d="M300 216 v36" stroke="#d8a07a" stroke-width="2" opacity=".5"/><path d="M360 216 v36" stroke="#d8a07a" stroke-width="2" opacity=".5"/><path d="M420 216 v36" stroke="#d8a07a" stroke-width="2" opacity=".5"/><circle cx="240" cy="110" r="90" fill="#fff0b0" opacity=".35"/><circle cx="240" cy="110" r="38" fill="#ffe9a8" stroke="#7fa6c8" stroke-width="6"/><rect y="296" width="480" height="64" fill="#a86f55"/><rect x="20" y="250" width="150" height="46" rx="20" fill="#f4e6d6" stroke="#8fb2cf" stroke-width="3"/><rect x="310" y="250" width="150" height="46" rx="20" fill="#f4e6d6" stroke="#8fb2cf" stroke-width="3"/><circle cx="240" cy="22" r="10" fill="#ffd36a"/><path d="M240 0 V14" stroke="#555" stroke-width="3"/><rect x="410" y="50" width="30" height="36" rx="6" fill="#d9c9a8" stroke="#8a7a5a" stroke-width="3"/><circle cx="425" cy="68" r="9" fill="#fff"/></svg>