<svg xmlns="http://www.w3.org/2000/svg" width="200" height="240" viewBox="0 0 200 240"><defs></defs><ellipse cx="68" cy="208" rx="21" ry="26" fill="#f1ebdb" stroke="#cfc6ad" stroke-width="3"/><ellipse cx="68" cy="226" rx="12" ry="7" fill="#e0d6bd"/><ellipse cx="132" cy="208" rx="21" ry="26" fill="#f1ebdb" stroke="#cfc6ad" stroke-width="3"/><ellipse cx="132" cy="226" rx="12" ry="7" fill="#e0d6bd"/><ellipse cx="100" cy="150" rx="58" ry="62" fill="#f1ebdb" stroke="#cfc6ad" stroke-width="3"/><ellipse cx="100" cy="164" rx="36" ry="42" fill="#fffaf0"/><ellipse cx="42" cy="152" rx="15" ry="40" transform="rotate(12 42 152)" fill="#f1ebdb" stroke="#cfc6ad" stroke-width="3"/><ellipse cx="158" cy="152" rx="15" ry="40" transform="rotate(-12 158 152)" fill="#f1ebdb" stroke="#cfc6ad" stroke-width="3"/><circle cx="62" cy="38" r="15" fill="#f1ebdb" stroke="#cfc6ad" stroke-width="3"/><circle cx="62" cy="38" r="8" fill="#e0d6bd"/><circle cx="138" cy="38" r="15" fill="#f1ebdb" stroke="#cfc6ad" stroke-width="3"/><circle cx="138" cy="38" r="8" fill="#e0d6bd"/><circle cx="100" cy="74" r="45" fill="#f1ebdb" stroke="#cfc6ad" stroke-width="3"/><ellipse cx="100" cy="92" rx="23" ry="17" fill="#e8dfc6"/><ellipse cx="100" cy="83" rx="9" ry="6.5" fill="#2b2b33"/><circle cx="68" cy="90" r="9" fill="#9cc7ee" opacity=".55"/><circle cx="132" cy="90" r="9" fill="#9cc7ee" opacity=".55"/><path d="M84 100 l5 -5 l5 5 l5 -5 l5 5 l5 -5 l5 5" stroke="#2b2b33" stroke-width="3" fill="none" stroke-linejoin="round"/><circle cx="80" cy="66" r="11" fill="#fff"/><circle cx="80" cy="67" r="4" fill="#1d1d24"/><circle cx="120" cy="66" r="11" fill="#fff"/><circle cx="120" cy="67" r="4" fill="#1d1d24"/><path d="M58 54 Q100 -10 142 54 Z" fill="#c9382f" stroke="#8f241d" stroke-width="3"/><rect x="56" y="46" width="88" height="15" rx="7" fill="#e24a3e" stroke="#8f241d" stroke-width="3"/><circle cx="100" cy="6" r="10" fill="#f26b5e" stroke="#8f241d" stroke-width="2"/><path d="M14 100 l-10 6 l10 6 M186 100 l10 6 l-10 6 M18 150 l-10 6 l10 6 M182 150 l10 6 l-10 6" stroke="#6aa9e0" stroke-width="3" fill="none" stroke-linecap="round"/></svg>